<?xml version='1.0' encoding='UTF-8' standalone='no'?>
<!-- Created with Fritzing (https://fritzing.org/) -->
<svg xmlns="http://www.w3.org/2000/svg" viewBox="0 0 332.11 269.295" height="3.74021in"  baseProfile="tiny" x="0in" y="0in" xmlns:svg="http://www.w3.org/2000/svg" version="1.2" width="4.61264in">
 <g id="watermark" >
  <g >
   <g >
    <path d="M307.378,263.095c-0.604,0,-1.131,0.325,-1.422,0.809l-2.796,0l3.96,-4.071c0.146,-0.146,0.289,-0.322,0.428,-0.521c0.149,-0.222,0.228,-0.479,0.228,-0.768c0,-0.279,-0.097,-0.518,-0.287,-0.71c-0.19,-0.188,-0.444,-0.287,-0.754,-0.287l-4.636,0c-0.305,0,-0.555,0.06,-0.742,0.17c-0.219,0.13,-0.33,0.368,-0.33,0.707c0,0.329,0.111,0.562,0.33,0.692c0.188,0.111,0.438,0.168,0.742,0.168l3.148,0l-3.974,4.086c-0.146,0.147,-0.289,0.315,-0.425,0.504c-0.153,0.212,-0.23,0.472,-0.23,0.771c0,0.28,0.096,0.521,0.288,0.711c0.188,0.188,0.442,0.285,0.754,0.285l4.315,0c0.293,0.467,0.812,0.776,1.4,0.776c0.916,0,1.66,-0.744,1.66,-1.661C309.037,263.84,308.292,263.095,307.378,263.095zM307.378,265.358c-0.334,0,-0.604,-0.271,-0.604,-0.604c0,-0.333,0.27,-0.604,0.604,-0.604c0.332,0,0.604,0.271,0.604,0.604C307.981,265.089,307.71,265.358,307.378,265.358z"  fill="#8C8C8C"/>
    <path d="M290.435,253.053c-0.914,0,-1.659,0.745,-1.659,1.66c0,0.916,0.745,1.66,1.659,1.66s1.658,-0.744,1.658,-1.66C292.095,253.798,291.351,253.053,290.435,253.053zM290.436,255.316c-0.333,0,-0.604,-0.27,-0.604,-0.603s0.271,-0.603,0.604,-0.603c0.331,0,0.604,0.27,0.604,0.603S290.767,255.316,290.436,255.316z"  fill="#8C8C8C"/>
    <path d="M298.956,257.715c-0.193,-0.111,-0.439,-0.169,-0.732,-0.169l-1.465,0L296.759,255.024c0,-0.292,-0.057,-0.538,-0.166,-0.729C296.503,254.138,296.31,253.953,295.9,253.953c-0.34,0,-0.578,0.116,-0.709,0.342c-0.109,0.193,-0.167,0.438,-0.167,0.729l0,2.521l-0.481,0c-0.295,0,-0.539,0.06,-0.731,0.169c-0.228,0.129,-0.341,0.368,-0.341,0.708c0,0.412,0.185,0.603,0.341,0.692c0.192,0.111,0.438,0.168,0.731,0.168l0.481,0l0,4.362c0,0.277,0.026,0.533,0.081,0.768c0.056,0.246,0.154,0.464,0.298,0.645c0.146,0.186,0.345,0.332,0.595,0.436c0.241,0.098,0.555,0.146,0.93,0.146l0.896,0c0.292,0,0.539,-0.054,0.731,-0.166c0.154,-0.089,0.341,-0.281,0.341,-0.693c0,-0.338,-0.114,-0.578,-0.341,-0.709c-0.192,-0.109,-0.439,-0.168,-0.731,-0.168l-0.821,0c-0.138,0,-0.19,-0.019,-0.207,-0.024c-0.014,-0.034,-0.035,-0.103,-0.035,-0.231L296.761,259.283l1.465,0c0.295,0,0.541,-0.057,0.734,-0.168c0.152,-0.09,0.34,-0.28,0.34,-0.692C299.296,258.083,299.183,257.844,298.956,257.715z"  fill="#8C8C8C"/>
    <path d="M290.501,257.545l-1.191,0c-0.292,0,-0.538,0.059,-0.731,0.169c-0.226,0.129,-0.341,0.368,-0.341,0.708c0,0.412,0.188,0.604,0.341,0.691c0.193,0.113,0.439,0.168,0.731,0.168l0.544,0l0,5.362c0,0.293,0.057,0.539,0.167,0.73c0.131,0.227,0.367,0.341,0.708,0.341c0.411,0,0.604,-0.187,0.692,-0.341c0.111,-0.191,0.168,-0.438,0.168,-0.73L291.589,258.633c0,-0.386,-0.084,-0.656,-0.256,-0.83C291.158,257.631,290.888,257.545,290.501,257.545z"  fill="#8C8C8C"/>
    <path d="M286.666,257.715c-0.193,-0.111,-0.44,-0.169,-0.732,-0.169l-0.604,0c-0.25,0,-0.498,0.063,-0.734,0.187c-0.226,0.119,-0.433,0.271,-0.616,0.453l-0.644,0.604l0,-0.247c0,-0.291,-0.055,-0.538,-0.168,-0.729c-0.128,-0.228,-0.368,-0.34,-0.707,-0.34c-0.41,0,-0.604,0.184,-0.693,0.34c-0.11,0.191,-0.167,0.438,-0.167,0.729l0,4.801c-0.475,0.293,-0.791,0.816,-0.791,1.412c0,0.917,0.745,1.661,1.658,1.661c0.916,0,1.66,-0.744,1.66,-1.661c0,-0.596,-0.317,-1.119,-0.792,-1.412l0,-2.21l1.738,-1.564c0.1,-0.09,0.199,-0.164,0.297,-0.217c0.084,-0.045,0.174,-0.067,0.274,-0.067l0.288,0c0.292,0,0.539,-0.056,0.732,-0.169c0.155,-0.088,0.339,-0.279,0.339,-0.691C287.006,258.083,286.891,257.844,286.666,257.715zM282.467,265.358c-0.332,0,-0.603,-0.271,-0.603,-0.604c0,-0.333,0.271,-0.604,0.603,-0.604c0.333,0,0.604,0.271,0.604,0.604C283.071,265.089,282.8,265.358,282.467,265.358z"  fill="#8C8C8C"/>
    <path d="M279.95,254.196c-0.193,-0.111,-0.44,-0.167,-0.731,-0.167l-0.59,0c-0.2,0,-0.389,0.004,-0.562,0.016c-0.176,0.009,-0.345,0.035,-0.506,0.07c-0.168,0.041,-0.336,0.109,-0.496,0.202c-0.158,0.093,-0.319,0.222,-0.48,0.382c-0.334,0.314,-0.554,0.656,-0.652,1.017c-0.094,0.348,-0.143,0.735,-0.143,1.151l0,0.678l-0.483,0c-0.292,0,-0.539,0.059,-0.73,0.169c-0.227,0.13,-0.342,0.369,-0.342,0.708c0,0.412,0.185,0.604,0.341,0.693c0.191,0.111,0.438,0.166,0.73,0.166l0.483,0l0,5.362c0,0.293,0.057,0.539,0.167,0.73c0.13,0.227,0.367,0.341,0.708,0.341c0.411,0,0.603,-0.187,0.692,-0.341c0.111,-0.191,0.168,-0.438,0.168,-0.73l0,-5.36l0.92,0c0.293,0,0.54,-0.057,0.732,-0.168c0.155,-0.09,0.34,-0.28,0.34,-0.692c0,-0.34,-0.114,-0.579,-0.34,-0.708c-0.189,-0.111,-0.436,-0.17,-0.729,-0.17l-0.92,0l0,-0.678c0,-0.218,0.019,-0.41,0.056,-0.571c0.032,-0.141,0.103,-0.261,0.218,-0.367l0.002,-0.004l0.002,-0.002c0.082,-0.082,0.176,-0.126,0.29,-0.136c0.15,-0.015,0.339,-0.022,0.564,-0.022l0.56,0c0.291,0,0.539,-0.058,0.731,-0.168c0.154,-0.088,0.339,-0.281,0.339,-0.693C280.29,254.565,280.175,254.326,279.95,254.196z"  fill="#8C8C8C"/>
    <path d="M331.943,257.813c-0.089,-0.156,-0.282,-0.34,-0.693,-0.34c-0.339,0,-0.578,0.113,-0.707,0.34c-0.078,0.133,-0.127,0.293,-0.152,0.477l-0.021,-0.021c-0.216,-0.236,-0.466,-0.42,-0.747,-0.539c-0.277,-0.119,-0.563,-0.183,-0.849,-0.183l-0.709,0c-0.249,0,-0.466,0.015,-0.64,0.041c-0.182,0.026,-0.352,0.074,-0.51,0.14c-0.158,0.066,-0.313,0.15,-0.459,0.254c-0.139,0.097,-0.303,0.226,-0.486,0.377c-0.188,0.156,-0.342,0.302,-0.463,0.434c-0.127,0.141,-0.23,0.293,-0.306,0.455c-0.069,0.16,-0.122,0.337,-0.147,0.523c-0.026,0.178,-0.041,0.391,-0.041,0.631l0,2.386c0,0.24,0.015,0.451,0.041,0.631c0.025,0.188,0.078,0.361,0.147,0.521c0.074,0.164,0.179,0.318,0.306,0.457c0.119,0.129,0.274,0.274,0.463,0.433c0.186,0.153,0.35,0.28,0.486,0.379c0.146,0.103,0.299,0.188,0.459,0.254c0.158,0.065,0.329,0.112,0.51,0.14c0.174,0.026,0.389,0.039,0.64,0.039l0.709,0c0.298,0,0.591,-0.066,0.87,-0.199c0.244,-0.114,0.492,-0.291,0.73,-0.523l0,1.434c0,0.18,-0.025,0.334,-0.072,0.465c-0.043,0.119,-0.159,0.258,-0.344,0.406c-0.154,0.127,-0.309,0.217,-0.457,0.264c-0.15,0.049,-0.341,0.074,-0.563,0.074l-2.203,0c-0.293,0,-0.538,0.055,-0.732,0.166c-0.152,0.088,-0.34,0.282,-0.34,0.692c0,0.341,0.115,0.579,0.34,0.71c0.194,0.109,0.439,0.167,0.732,0.167l2.326,0c0.247,0,0.463,-0.015,0.638,-0.041c0.179,-0.026,0.351,-0.073,0.513,-0.14c0.153,-0.064,0.31,-0.15,0.455,-0.254c0.143,-0.101,0.305,-0.227,0.487,-0.379c0.185,-0.153,0.343,-0.299,0.463,-0.431c0.128,-0.141,0.229,-0.294,0.304,-0.456c0.071,-0.162,0.123,-0.338,0.148,-0.523c0.025,-0.182,0.041,-0.393,0.041,-0.631l0,-7.898C332.11,258.251,332.056,258.004,331.943,257.813zM330.374,262.273c0,0.188,-0.062,0.35,-0.188,0.49c-0.15,0.172,-0.394,0.403,-0.716,0.686l-0.002,0.003l-0.002,0.004c-0.139,0.13,-0.291,0.237,-0.453,0.325c-0.148,0.082,-0.325,0.121,-0.526,0.121L328.186,263.902c-0.222,0,-0.41,-0.021,-0.563,-0.072c-0.148,-0.049,-0.301,-0.137,-0.453,-0.264c-0.231,-0.186,-0.315,-0.322,-0.346,-0.404c-0.049,-0.131,-0.072,-0.285,-0.072,-0.465l0,-2.206c0,-0.18,0.023,-0.336,0.072,-0.467c0.029,-0.082,0.113,-0.217,0.346,-0.403c0.152,-0.127,0.305,-0.216,0.453,-0.265c0.153,-0.049,0.342,-0.072,0.563,-0.072l0.301,0c0.212,0,0.388,0.037,0.526,0.113c0.152,0.082,0.308,0.191,0.457,0.324c0.322,0.293,0.564,0.529,0.716,0.7c0.128,0.146,0.188,0.304,0.188,0.492L330.374,262.273z"  fill="#8C8C8C"/>
    <path d="M311.964,253.053c-0.914,0,-1.66,0.745,-1.66,1.66c0,0.916,0.746,1.66,1.66,1.66s1.66,-0.744,1.66,-1.66C313.624,253.798,312.878,253.053,311.964,253.053zM311.964,255.316c-0.332,0,-0.604,-0.27,-0.604,-0.603s0.271,-0.603,0.604,-0.603s0.604,0.27,0.604,0.603C312.568,255.046,312.296,255.316,311.964,255.316z"  fill="#8C8C8C"/>
    <path d="M322.65,263.321l-0.107,-3.419c-0.011,-0.178,-0.021,-0.338,-0.031,-0.489c-0.01,-0.162,-0.037,-0.322,-0.082,-0.476c-0.045,-0.158,-0.11,-0.309,-0.198,-0.453c-0.093,-0.146,-0.216,-0.289,-0.37,-0.42c-0.225,-0.192,-0.443,-0.334,-0.646,-0.416c-0.207,-0.084,-0.461,-0.127,-0.754,-0.127l-1.012,0c-0.259,0,-0.501,0.058,-0.716,0.164c-0.197,0.098,-0.39,0.203,-0.572,0.315l-0.003,0.002l-0.003,0.003l-0.837,0.555l0,-0.041c0,-0.291,-0.057,-0.539,-0.168,-0.733c-0.129,-0.226,-0.367,-0.339,-0.707,-0.339c-0.411,0,-0.604,0.185,-0.693,0.339c-0.109,0.194,-0.168,0.438,-0.168,0.733l0,6.099c0,0.295,0.059,0.539,0.168,0.734c0.09,0.153,0.282,0.338,0.693,0.338c0.34,0,0.578,-0.114,0.707,-0.338c0.111,-0.195,0.168,-0.439,0.168,-0.734L317.319,260.583l1.953,-1.215c0.04,-0.024,0.082,-0.048,0.121,-0.063c0.031,-0.016,0.07,-0.025,0.115,-0.031c0.049,-0.012,0.117,-0.016,0.195,-0.016l0.362,0c0.188,0,0.334,0.021,0.435,0.059c0.082,0.029,0.143,0.076,0.18,0.143c0.05,0.078,0.08,0.18,0.098,0.303c0.02,0.139,0.034,0.309,0.045,0.504l0.096,3.097c-0.457,0.297,-0.762,0.811,-0.762,1.394c0,0.917,0.746,1.661,1.66,1.661c0.916,0,1.66,-0.744,1.66,-1.661C323.476,264.146,323.143,263.608,322.65,263.321zM321.816,265.358c-0.334,0,-0.602,-0.271,-0.602,-0.604c0,-0.333,0.268,-0.604,0.602,-0.604c0.333,0,0.604,0.271,0.604,0.604C322.421,265.089,322.149,265.358,321.816,265.358z"  fill="#8C8C8C"/>
    <path d="M312.027,257.545l-1.193,0c-0.293,0,-0.539,0.059,-0.731,0.169c-0.226,0.129,-0.341,0.368,-0.341,0.708c0,0.412,0.186,0.604,0.341,0.691c0.192,0.113,0.438,0.168,0.731,0.168l0.545,0l0,5.362c0,0.293,0.055,0.539,0.168,0.73c0.127,0.227,0.365,0.341,0.707,0.341c0.41,0,0.604,-0.187,0.691,-0.341c0.111,-0.191,0.17,-0.438,0.17,-0.73L313.115,258.633c0,-0.386,-0.085,-0.656,-0.259,-0.83C312.684,257.631,312.411,257.545,312.027,257.545z"  fill="#8C8C8C"/>
   </g>
  </g>
 </g>
 <g partID="855117920">
  <g transform="translate(309.666,167.757)">
   <g transform="matrix(0,1,-1,0,0,0)">
    <g id="breadboard">
     <rect id="rect76" stroke="none" stroke-width="0" height="56.6929" x="0" y="5.80675" width="49.6063" fill="#333333"/>
     <g transform="scale(-1)">
      <rect id="rect8" height="0.65" x="-29.6634" y="-21.521" width="0.99" fill="#666666"/>
     </g>
     <g transform="scale(-1)">
      <rect id="rect10" height="0.512" x="-29.6634" y="-21.521" width="0.0889999" fill="#999999"/>
     </g>
     <rect id="rect207" stroke="#666666" stroke-width="0.75" height="33.6081" x="9.22607" y="26.5761" width="31.1919" fill="#ececec"/>
     <g transform="scale(-1)">
      <rect id="rect14" height="0.65" x="-27.8195" y="-21.521" width="0.991001" fill="#666666"/>
     </g>
     <g transform="rotate(-90)">
      <text id="text3685" font-family="OCRA" stroke-width="0.072" x="-54.4537" font-size="3.528" y="17.8809" fill="#000000">SEEED</text>
     </g>
     <g transform="scale(-1)">
      <rect id="rect16" height="0.512" x="-27.8195" y="-21.521" width="0.0889999" fill="#999999"/>
     </g>
     <g transform="scale(-1)">
      <rect id="rect20" height="0.65" x="-25.9785" y="-21.521" width="0.991001" fill="#666666"/>
     </g>
     <g transform="scale(-1)">
      <rect id="rect22" height="0.512" x="-25.9785" y="-21.521" width="0.0889999" fill="#999999"/>
     </g>
     <g transform="scale(-1)">
      <rect id="rect26" height="0.65" x="-24.1345" y="-21.521" width="0.99" fill="#666666"/>
     </g>
     <g transform="scale(-1)">
      <rect id="rect28" height="0.512" x="-24.1345" y="-21.521" width="0.0879998" fill="#999999"/>
     </g>
     <g transform="scale(-1)">
      <rect id="rect32" height="0.65" x="-22.2924" y="-21.521" width="0.99" fill="#666666"/>
     </g>
     <g transform="scale(-1)">
      <rect id="rect34" height="0.512" x="-22.2924" y="-21.521" width="0.0889999" fill="#999999"/>
     </g>
     <g transform="matrix(-1, 0, 0, -1, 36.9485, 21.521)">
      <polygon id="polygon38" fill="#b3b3b3" points="2.06,19.335,2.06,0.366,20.905,0.366,20.904,19.104,20.848,21.364,2.164,21.364"/>
     </g>
     <g transform="matrix(-1, 0, 0, -1, 36.9485, 21.521)">
      <polygon id="polygon40" fill="#999999" points="10.12,17.786,2.275,17.786,2.275,21.197,4.061,21.192,13.309,21.19"/>
     </g>
     <g transform="scale(-1)">
      <rect id="rect42" height="3.041" x="-15.8445" y="-14.541" width="1.831" fill="#666666"/>
     </g>
     <g transform="scale(-1)">
      <rect id="rect44" height="3.041" x="-36.9485" y="-14.541" width="1.829" fill="#666666"/>
     </g>
     <g transform="scale(-1)">
      <rect id="rect46" height="0.13" x="-34.8885" y="-21.155" width="18.845" fill="#cccccc"/>
     </g>
     <g transform="scale(-1)">
      <rect id="rect48" height="18.363" x="-30.6275" y="-21.155" width="10.291" fill="#333333"/>
     </g>
     <g transform="scale(-1)">
      <rect id="rect50" height="1.082" x="-36.1225" y="-3.33302" width="1.003" fill="#b3b3b3"/>
     </g>
     <g transform="scale(-1)">
      <rect id="rect52" height="1.082" x="-35.7595" y="-3.33302" width="0.642" fill="#cccccc"/>
     </g>
     <g transform="scale(-1)">
      <rect id="rect54" height="1.082" x="-15.8455" y="-3.33302" width="1.001" fill="#b3b3b3"/>
     </g>
     <g transform="scale(-1)">
      <rect id="rect56" height="1.082" x="-15.8455" y="-3.33302" width="0.642" fill="#cccccc"/>
     </g>
     <g transform="scale(-1)">
      <rect id="rect58" height="0.648" x="-21.5485" y="-2.41704" width="0.477" fill="#f2f2f2"/>
     </g>
     <g transform="scale(-1)">
      <rect id="rect62" height="0.648" x="-23.6355" y="-2.41704" width="0.479" fill="#f2f2f2"/>
     </g>
     <g transform="scale(-1)">
      <rect id="rect66" height="0.648" x="-25.7195" y="-2.41704" width="0.477" fill="#f2f2f2"/>
     </g>
     <g transform="scale(-1)">
      <rect id="rect70" height="0.648" x="-27.8055" y="-2.41704" width="0.477" fill="#f2f2f2"/>
     </g>
     <g transform="scale(-1)">
      <rect id="rect74" height="0.648" x="-29.8905" y="-2.41704" width="0.477" fill="#f2f2f2"/>
     </g>
     <g transform="scale(-1)">
      <rect id="rect78" height="0.648" x="-29.8905" y="-2.41704" width="0.0959998" fill="#808080"/>
     </g>
     <g transform="scale(-1)">
      <rect id="rect82" height="0.648" x="-27.8055" y="-2.41704" width="0.0959998" fill="#808080"/>
     </g>
     <g transform="scale(-1)">
      <rect id="rect86" height="0.648" x="-25.7195" y="-2.41704" width="0.0979999" fill="#808080"/>
     </g>
     <g transform="scale(-1)">
      <rect id="rect90" height="0.648" x="-23.6345" y="-2.41704" width="0.0979999" fill="#808080"/>
     </g>
     <g transform="scale(-1)">
      <rect id="rect94" height="0.648" x="-21.5475" y="-2.41704" width="0.0979999" fill="#808080"/>
     </g>
     <path id="path100" d="m30.4035,1.58299l-0.514,0l0,0.396l-0.477,0l0,-0.396l-1.608,0l0,0.396l-0.475993,0l0,-0.396l-1.608,0l0,0.396l-0.477,0l0,-0.396l-1.607,0l0,0.396l-0.479,0l0,-0.396l-1.60902,0l0,0.396l-0.477,0l0,-0.396l-0.322992,0,-0.269,0c-0.0789998,0,-0.144,0.0640001,-0.144,0.146l0,1.064c0,0.0799999,0.063,0.146,0.144,0.146L30.4825,2.93904c0.0789998,0,0.146,-0.0640001,0.146,-0.146l0,-1.064c0,-0.0779998,-0.0650002,-0.146,-0.146,-0.146z" fill="#4d4d4d"/>
     <path id="path102" d="m35.1195,20.588,-0.229,0.567l-2.534,0c0,0,2.302,-0.113,2.384,-0.283,0.0820008,-0.170001,-0.11,-0.284,-0.11,-0.284z" fill="#cccccc"/>
     <path id="path104" d="m15.8445,20.588,0.229,0.566,2.53501,-2.16e-06c0,0,-2.301,-0.113,-2.383,-0.283,-0.0820008,-0.170001,0.109,-0.283,0.109,-0.283z" fill="#cccccc"/>
     <path id="path106" d="M35.1195,4.833L35.1195,0l-19.276,0.0059976L15.8435,4.833ZM16.2904,0.324l18.383,0l0,3.411l-18.385,0z" fill="#cccccc"/>
     <path id="path108" d="m19.2334,20.588l0,-1.067l1.60502,0l0,1.634l0.461,0l0,-0.566l8.36395,2.88e-06l0,0.565997l0.525031,0l0,-1.635l1.606,-5.04e-06l0,1.068l3.325,0L35.1195,4.14905l-19.273,0l5.76e-05,16.439zM30.1884,7.29799L30.1884,6.48399l1.593,4.32e-05l0,0.880999c0.426,0.277,0.708,0.760003,0.708,1.307,0,0.598,-0.219,1.105,-0.708,1.369l0,0,0,4.48l-1.592,0l0,-4.482c-0.488,-0.264,-0.824998,-0.772999,-0.824998,-1.371,2.16e-05,-0.597046,0.335974,-1.10702,0.823997,-1.37004zm-10.888,0L19.3005,6.48399l1.592,0l0,0.880999c0.426,0.277,0.707,0.760003,0.707,1.307,0,0.598,-0.217,1.105,-0.707,1.369l0,0,0,4.48l-1.592,0l0,-4.482c-0.49,-0.264,-0.825998,-0.772999,-0.825998,-1.371,1.44e-05,-0.597002,0.334958,-1.10698,0.825998,-1.36999z" fill="#e6e6e6"/>
     <g transform="matrix(-1, 0, 0, -1, 36.9485, 21.521)">
      <polygon id="polygon110" fill="#f2f2f2" points="3.36,0.932998,2.235,17.376,1.829,17.376,1.829,0.932998"/>
     </g>
     <g transform="matrix(-1, 0, 0, -1, 36.9485, 21.521)">
      <polygon id="polygon112" fill="#999999" points="21.104,0.932998,21.104,17.376,20.535,6.396,19.968,0.932998"/>
     </g>
     <g transform="scale(-1)">
      <rect id="rect114" height="0.13" x="-31.7815" y="-14.52" width="1.592" fill="#cccccc"/>
     </g>
     <g transform="scale(-1)">
      <rect id="rect116" height="0.13" x="-20.8905" y="-14.52" width="1.591" fill="#cccccc"/>
     </g>
     <g transform="scale(-1)">
      <rect id="rect118" height="0.66" x="-34.1745" y="-5.00904" width="17.387" fill="#b3b3b3"/>
     </g>
     <g transform="scale(-1)">
      <rect id="rect120" height="0.313" x="-34.1745" y="-4.45802" width="17.387" fill="#cccccc"/>
     </g>
     <circle id="connector0pin" cx="3.222" stroke="#ffbf00" stroke-width="1.44" r="1.98" gorn="0.1.0.1" cy="12.2249" fill="#ffffff"/>
     <circle id="connector1pin" cx="3.222" stroke="#ffbf00" stroke-width="1.44" r="1.98" gorn="0.1.0.3" cy="19.4249" fill="#ffffff"/>
     <circle id="connector2pin" cx="3.222" stroke="#ffbf00" stroke-width="1.44" r="1.98" gorn="0.1.0.5" cy="26.6249" fill="#ffffff"/>
     <circle id="connector3pin" cx="3.222" stroke="#ffbf00" stroke-width="1.44" r="1.98" gorn="0.1.0.7" cy="33.8249" fill="#ffffff"/>
     <circle id="connector4pin" cx="3.222" stroke="#ffbf00" stroke-width="1.44" r="1.98" gorn="0.1.0.9" cy="41.0249" fill="#ffffff"/>
     <circle id="connector5pin" cx="3.222" stroke="#ffbf00" stroke-width="1.44" r="1.98" gorn="0.1.0.11" cy="48.2249" fill="#ffffff"/>
     <circle id="connector6pin" cx="3.222" stroke="#ffbf00" stroke-width="1.44" r="1.98" gorn="0.1.0.13" cy="55.4249" fill="#ffffff"/>
     <circle id="connector7pin" cx="46.458" stroke="#ffbf00" stroke-width="1.44" r="1.98" gorn="0.1.0.14" cy="55.4249" fill="#ffffff"/>
     <circle id="connector8pin" cx="46.458" stroke="#ffbf00" stroke-width="1.44" r="1.98" gorn="0.1.0.12" cy="48.2249" fill="#ffffff"/>
     <circle id="connector9pin" cx="46.458" stroke="#ffbf00" stroke-width="1.44" r="1.98" gorn="0.1.0.10" cy="41.0249" fill="#ffffff"/>
     <circle id="connector10pin" cx="46.458" stroke="#ffbf00" stroke-width="1.44" r="1.98" gorn="0.1.0.8" cy="33.8249" fill="#ffffff"/>
     <circle id="connector11pin" cx="46.458" stroke="#ffbf00" stroke-width="1.44" r="1.98" gorn="0.1.0.6" cy="26.6249" fill="#ffffff"/>
     <circle id="connector12pin" cx="46.458" stroke="#ffbf00" stroke-width="1.44" r="1.98" gorn="0.1.0.4" cy="19.4249" fill="#ffffff"/>
     <circle id="connector13pin" cx="46.458" stroke="#ffbf00" stroke-width="1.44" r="1.98" gorn="0.1.0.2" cy="12.2249" fill="#ffffff"/>
    </g>
   </g>
  </g>
 </g>
 <g partID="855130300">
  <g transform="translate(332.11,97.4838)">
   <g transform="matrix(-1,0,0,-1,0,0)">
    <g id="breadboard">
     <path id="path4" stroke-width="1" d="m0,0l0,76.9169l19.275,0c0,0,0,-2.866,0,-4.251,0,-1.385,1.417,-1.417,1.417,-1.417l35.1511,0c0,0,1.417,0.0300002,1.417,1.417,0,1.387,0,4.251,0,4.251L76.5353,76.9169L76.5353,0Zm5.87502,0.706999c2.73901,0,4.94602,2.219,4.94602,4.961,0,2.743,-2.20901,4.96002,-4.94602,4.96002,-2.74001,0,-4.97502,-2.21702,-4.97502,-4.96102C0.899006,2.927,3.13301,0.706999,5.87502,0.706999ZM5.87102,76.3941c-2.73801,0,-4.96101,-2.22,-4.96101,-4.96199,0,-2.743,2.22201,-4.96,4.96101,-4.96,2.73901,0,4.96001,2.217,4.96001,4.96,0,2.743,-2.221,4.96199,-4.96001,4.96199zM27.4681,7.46899c-0.995004,0,-1.79801,-0.806997,-1.79801,-1.8,0,-0.993002,0.806004,-1.801,1.79801,-1.801,0.995004,0,1.80101,0.808999,1.80101,1.801,0,0.994003,-0.807005,1.8,-1.80101,1.8zm7.20101,0c-0.995004,0,-1.80101,-0.806997,-1.80101,-1.8,0,-0.993002,0.807005,-1.801,1.80101,-1.801,0.992001,0,1.79801,0.808999,1.79801,1.801,0,0.994003,-0.806004,1.8,-1.79801,1.8zm7.2,-0.0010008c-0.992001,0,-1.79901,-0.805997,-1.79901,-1.799,0,-0.993002,0.807005,-1.8,1.79901,-1.8,0.994003,0,1.80101,0.807998,1.80101,1.8,0,0.994003,-0.807005,1.799,-1.80101,1.799zm7.19903,0.0010008c-0.993002,0,-1.79901,-0.806997,-1.79901,-1.8,0,-0.993002,0.806004,-1.801,1.79901,-1.801,0.994003,0,1.80101,0.808999,1.80101,1.801,0,0.994003,-0.806004,1.8,-1.80101,1.8zm21.5951,68.925c-2.74301,0,-4.96101,-2.22,-4.96101,-4.961,0,-2.741,2.21801,-4.961,4.96101,-4.961,2.73701,0,4.96101,2.22,4.96101,4.961,0,2.741,-2.22401,4.961,-4.96101,4.961zm-0.0040032,-65.765c-2.74001,0,-4.94602,-2.21702,-4.94602,-4.96002,0,-2.741,2.20601,-4.96,4.94602,-4.96,2.74301,0,4.97502,2.218,4.97502,4.96,0,2.743,-2.23501,4.96002,-4.97502,4.96002z" fill="#165c7a"/>
     <rect id="rect4903" stroke-width="1" height="54.709" x="0.567002" gorn="0.0.0.0.0.0.0.0.1.1" y="11.055" width="75.4003" fill="#3e3d40"/>
     <rect id="rect4903_1_" stroke-width="1" height="42.521" x="0.567002" gorn="0.0.0.0.0.0.0.0.1.2" y="11.055" width="75.4003"/>
     <rect id="rect8" stroke-width="1" height="36.851" opacity="0.8" enable-background="new    " x="3.40101" y="13.89" width="69.7322" fill="#2e2d30"/>
     <path id="path10" stroke-width="1" d="M3.40101,50.739L3.40101,13.89L36.4641,13.89C44.7182,35.794,56.2682,50.741,56.2682,50.741L3.40101,50.741Z" opacity="0.2" enable-background="new    " fill="#58585a"/>
     <path id="path10269" stroke="#f7bd13" stroke-width="1.1027" d="m75.4823,5.669c0,2.661,-2.15901,4.81802,-4.81802,4.81802,-2.66101,0,-4.82002,-2.15702,-4.82002,-4.81802,0,-2.662,2.15901,-4.818,4.82002,-4.818,2.659,0,4.81802,2.158,4.81802,4.818z" gorn="0.0.0.0.0.0.0.0.1.5" fill="none"/>
     <path id="path10269_2_" stroke="#f7bd13" stroke-width="1.1027" d="m10.69,5.669c0,2.661,-2.15801,4.81902,-4.81802,4.81902,-2.66201,0,-4.82002,-2.15702,-4.82002,-4.81902,0,-2.662,2.15801,-4.819,4.82002,-4.819,2.66001,0,4.81802,2.159,4.81802,4.819z" gorn="0.0.0.0.0.0.0.0.1.6" fill="none"/>
     <path id="path10269_3_" stroke="#f7bd13" stroke-width="1.1027" d="m75.4823,71.433c0,2.65999,-2.15901,4.818,-4.81802,4.818,-2.66101,0,-4.82002,-2.156,-4.82002,-4.818,0,-2.662,2.15901,-4.818,4.82002,-4.818,2.659,0,4.81802,2.158,4.81802,4.818z" gorn="0.0.0.0.0.0.0.0.1.7" fill="none"/>
     <path id="path10269_4_" stroke="#f7bd13" stroke-width="1.1027" d="m10.69,71.433c0,2.661,-2.15901,4.818,-4.81802,4.818,-2.66101,0,-4.82002,-2.156,-4.82002,-4.818,0,-2.662,2.15901,-4.818,4.82002,-4.818,2.65901,0,4.81802,2.158,4.81802,4.818z" gorn="0.0.0.0.0.0.0.0.1.8" fill="none"/>
     <path id="path24" stroke-width="1" d="M53.8131,68.382L22.723,68.382c-0.813002,0.0410004,-1.463,0.709,-1.463,1.533l0,5.566l34.0161,0l0,-5.566c-0.0010008,-0.823997,-0.649003,-1.492,-1.463,-1.533z" fill="url(#SVGID_1_)"/>
     <path id="path26" stroke-width="1" d="m20.093,65.764l0,0.0829994c1.42901,0,2.58401,1.156,2.58401,2.583l0,7.051l31.1811,0l0,-7.051c0,-1.427,1.156,-2.583,2.58401,-2.583l0,-0.0829994z"/>
     <rect id="rect28" stroke-width="1" height="12.188" x="20.0931" y="53.576" width="36.3491" fill="#292929"/>
     <rect id="rect4903_2_" stroke-width="1" height="2.735" opacity="0.8" enable-background="new    " x="0.567002" gorn="0.0.0.0.0.0.0.0.1.14" y="53.575" width="75.4003" fill="#1a171b"/>
     <g transform="scale(1.0000017,0.9999983)">
      <text id="text31" font-family="DroidSans" stroke-width="1" x="53.3595" font-size="2.5" y="6.67208" fill="#ffffff">4</text>
     </g>
     <g transform="scale(1.0000017,0.9999983)">
      <text id="text45" font-family="DroidSans" stroke-width="1" x="21.8008" font-size="2.5" y="6.67208" fill="#ffffff">1</text>
     </g>
     <g transform="scale(1.0000017,0.9999983)">
      <text id="text59" font-family="DroidSans" stroke-width="1" x="24.8096" font-size="2.5" y="10.5272" fill="#ffffff">GND</text>
     </g>
     <g transform="scale(1.0000017,0.9999983)">
      <text id="text73" font-family="DroidSans" stroke-width="1" x="32.2184" font-size="2.5" y="10.5272" fill="#ffffff">VDD</text>
     </g>
     <g transform="scale(1.0000017,0.9999983)">
      <text id="text87" font-family="DroidSans" stroke-width="1" x="39.713" font-size="2.5" y="10.5272" fill="#ffffff">SCK</text>
     </g>
     <g transform="scale(1.0000017,0.9999983)">
      <text id="text101" font-family="DroidSans" stroke-width="1" x="46.7755" font-size="2.5" y="10.5272" fill="#ffffff">SDA</text>
     </g>
     <circle id="connector0pin" cx="27.4691" stroke="#f7bd13" stroke-width="1.44" r="2.088" gorn="0.0.0.0.0.0.0.0.1.24" cy="5.66801" fill="none"/>
     <circle id="connector1pin" cx="34.6691" stroke="#f7bd13" stroke-width="1.44" r="2.088" gorn="0.0.0.0.0.0.0.0.1.23" cy="5.66898" fill="none"/>
     <circle id="connector2pin" cx="41.8691" stroke="#f7bd13" stroke-width="1.44" r="2.088" gorn="0.0.0.0.0.0.0.0.1.22" cy="5.66898" fill="none"/>
     <circle id="connector3pin" cx="49.0662" stroke="#f7bd13" stroke-width="1.44" r="2.088" gorn="0.0.0.0.0.0.0.0.1.21" cy="5.66898" fill="none"/>
    </g>
   </g>
  </g>
 </g>
 <g partID="855130330">
  <g transform="translate(252.91,97.4838)">
   <g transform="matrix(-1,0,0,-1,0,0)">
    <g id="breadboard">
     <path id="path4" stroke-width="1" d="m0,0l0,76.9169l19.275,0c0,0,0,-2.866,0,-4.251,0,-1.385,1.417,-1.417,1.417,-1.417l35.1511,0c0,0,1.417,0.0300002,1.417,1.417,0,1.387,0,4.251,0,4.251L76.5353,76.9169L76.5353,0Zm5.87502,0.706999c2.73901,0,4.94602,2.219,4.94602,4.961,0,2.743,-2.20901,4.96002,-4.94602,4.96002,-2.74001,0,-4.97502,-2.21702,-4.97502,-4.96102C0.899006,2.927,3.13301,0.706999,5.87502,0.706999ZM5.87102,76.3941c-2.73801,0,-4.96101,-2.22,-4.96101,-4.96199,0,-2.743,2.22201,-4.96,4.96101,-4.96,2.73901,0,4.96001,2.217,4.96001,4.96,0,2.743,-2.221,4.96199,-4.96001,4.96199zM27.4681,7.46899c-0.995004,0,-1.79801,-0.806997,-1.79801,-1.8,0,-0.993002,0.806004,-1.801,1.79801,-1.801,0.995004,0,1.80101,0.808999,1.80101,1.801,0,0.994003,-0.807005,1.8,-1.80101,1.8zm7.20101,0c-0.995004,0,-1.80101,-0.806997,-1.80101,-1.8,0,-0.993002,0.807005,-1.801,1.80101,-1.801,0.992001,0,1.79801,0.808999,1.79801,1.801,0,0.994003,-0.806004,1.8,-1.79801,1.8zm7.2,-0.0010008c-0.992001,0,-1.79901,-0.805997,-1.79901,-1.799,0,-0.993002,0.807005,-1.8,1.79901,-1.8,0.994003,0,1.80101,0.807998,1.80101,1.8,0,0.994003,-0.807005,1.799,-1.80101,1.799zm7.19903,0.0010008c-0.993002,0,-1.79901,-0.806997,-1.79901,-1.8,0,-0.993002,0.806004,-1.801,1.79901,-1.801,0.994003,0,1.80101,0.808999,1.80101,1.801,0,0.994003,-0.806004,1.8,-1.80101,1.8zm21.5951,68.925c-2.74301,0,-4.96101,-2.22,-4.96101,-4.961,0,-2.741,2.21801,-4.961,4.96101,-4.961,2.73701,0,4.96101,2.22,4.96101,4.961,0,2.741,-2.22401,4.961,-4.96101,4.961zm-0.0040032,-65.765c-2.74001,0,-4.94602,-2.21702,-4.94602,-4.96002,0,-2.741,2.20601,-4.96,4.94602,-4.96,2.74301,0,4.97502,2.218,4.97502,4.96,0,2.743,-2.23501,4.96002,-4.97502,4.96002z" fill="#165c7a"/>
     <rect id="rect4903" stroke-width="1" height="54.709" x="0.567002" gorn="0.0.0.0.0.0.0.0.1.1" y="11.055" width="75.4003" fill="#3e3d40"/>
     <rect id="rect4903_1_" stroke-width="1" height="42.521" x="0.567002" gorn="0.0.0.0.0.0.0.0.1.2" y="11.055" width="75.4003"/>
     <rect id="rect8" stroke-width="1" height="36.851" opacity="0.8" enable-background="new    " x="3.40101" y="13.89" width="69.7322" fill="#2e2d30"/>
     <path id="path10" stroke-width="1" d="M3.40101,50.739L3.40101,13.89L36.4641,13.89C44.7182,35.794,56.2682,50.741,56.2682,50.741L3.40101,50.741Z" opacity="0.2" enable-background="new    " fill="#58585a"/>
     <path id="path10269" stroke="#f7bd13" stroke-width="1.1027" d="m75.4823,5.669c0,2.661,-2.15901,4.81802,-4.81802,4.81802,-2.66101,0,-4.82002,-2.15702,-4.82002,-4.81802,0,-2.662,2.15901,-4.818,4.82002,-4.818,2.659,0,4.81802,2.158,4.81802,4.818z" gorn="0.0.0.0.0.0.0.0.1.5" fill="none"/>
     <path id="path10269_2_" stroke="#f7bd13" stroke-width="1.1027" d="m10.69,5.669c0,2.661,-2.15801,4.81902,-4.81802,4.81902,-2.66201,0,-4.82002,-2.15702,-4.82002,-4.81902,0,-2.662,2.15801,-4.819,4.82002,-4.819,2.66001,0,4.81802,2.159,4.81802,4.819z" gorn="0.0.0.0.0.0.0.0.1.6" fill="none"/>
     <path id="path10269_3_" stroke="#f7bd13" stroke-width="1.1027" d="m75.4823,71.433c0,2.65999,-2.15901,4.818,-4.81802,4.818,-2.66101,0,-4.82002,-2.156,-4.82002,-4.818,0,-2.662,2.15901,-4.818,4.82002,-4.818,2.659,0,4.81802,2.158,4.81802,4.818z" gorn="0.0.0.0.0.0.0.0.1.7" fill="none"/>
     <path id="path10269_4_" stroke="#f7bd13" stroke-width="1.1027" d="m10.69,71.433c0,2.661,-2.15901,4.818,-4.81802,4.818,-2.66101,0,-4.82002,-2.156,-4.82002,-4.818,0,-2.662,2.15901,-4.818,4.82002,-4.818,2.65901,0,4.81802,2.158,4.81802,4.818z" gorn="0.0.0.0.0.0.0.0.1.8" fill="none"/>
     <path id="path24" stroke-width="1" d="M53.8131,68.382L22.723,68.382c-0.813002,0.0410004,-1.463,0.709,-1.463,1.533l0,5.566l34.0161,0l0,-5.566c-0.0010008,-0.823997,-0.649003,-1.492,-1.463,-1.533z" fill="url(#SVGID_1_)"/>
     <path id="path26" stroke-width="1" d="m20.093,65.764l0,0.0829994c1.42901,0,2.58401,1.156,2.58401,2.583l0,7.051l31.1811,0l0,-7.051c0,-1.427,1.156,-2.583,2.58401,-2.583l0,-0.0829994z"/>
     <rect id="rect28" stroke-width="1" height="12.188" x="20.0931" y="53.576" width="36.3491" fill="#292929"/>
     <rect id="rect4903_2_" stroke-width="1" height="2.735" opacity="0.8" enable-background="new    " x="0.567002" gorn="0.0.0.0.0.0.0.0.1.14" y="53.575" width="75.4003" fill="#1a171b"/>
     <g transform="scale(1.0000017,0.9999983)">
      <text id="text31" font-family="DroidSans" stroke-width="1" x="53.3595" font-size="2.5" y="6.67208" fill="#ffffff">4</text>
     </g>
     <g transform="scale(1.0000017,0.9999983)">
      <text id="text45" font-family="DroidSans" stroke-width="1" x="21.8008" font-size="2.5" y="6.67208" fill="#ffffff">1</text>
     </g>
     <g transform="scale(1.0000017,0.9999983)">
      <text id="text59" font-family="DroidSans" stroke-width="1" x="24.8096" font-size="2.5" y="10.5272" fill="#ffffff">GND</text>
     </g>
     <g transform="scale(1.0000017,0.9999983)">
      <text id="text73" font-family="DroidSans" stroke-width="1" x="32.2184" font-size="2.5" y="10.5272" fill="#ffffff">VDD</text>
     </g>
     <g transform="scale(1.0000017,0.9999983)">
      <text id="text87" font-family="DroidSans" stroke-width="1" x="39.713" font-size="2.5" y="10.5272" fill="#ffffff">SCK</text>
     </g>
     <g transform="scale(1.0000017,0.9999983)">
      <text id="text101" font-family="DroidSans" stroke-width="1" x="46.7755" font-size="2.5" y="10.5272" fill="#ffffff">SDA</text>
     </g>
     <circle id="connector0pin" cx="27.4691" stroke="#f7bd13" stroke-width="1.44" r="2.088" gorn="0.0.0.0.0.0.0.0.1.24" cy="5.66801" fill="none"/>
     <circle id="connector1pin" cx="34.6691" stroke="#f7bd13" stroke-width="1.44" r="2.088" gorn="0.0.0.0.0.0.0.0.1.23" cy="5.66898" fill="none"/>
     <circle id="connector2pin" cx="41.8691" stroke="#f7bd13" stroke-width="1.44" r="2.088" gorn="0.0.0.0.0.0.0.0.1.22" cy="5.66898" fill="none"/>
     <circle id="connector3pin" cx="49.0662" stroke="#f7bd13" stroke-width="1.44" r="2.088" gorn="0.0.0.0.0.0.0.0.1.21" cy="5.66898" fill="none"/>
    </g>
   </g>
  </g>
 </g>
 <g partID="855138450">
  <g transform="translate(124.641,188.95)">
   <g id="breadboard" >
    <text id="label" stroke-width="0" font-family="Droid Sans"  x="7.2" text-anchor="middle" font-size="7.2" y="6.48" xmlns:xml="http://www.w3.org/XML/1998/namespace" xml:space="preserve" fill="#a51d2d">5v</text>
   </g>
  </g>
 </g>
 <g partID="855138530">
  <g transform="translate(124.641,180.735)">
   <g id="breadboard" >
    <text id="label" stroke-width="0" font-family="Droid Sans"  x="10.8" text-anchor="middle" font-size="7.2" y="6.48" xmlns:xml="http://www.w3.org/XML/1998/namespace" xml:space="preserve" fill="#000000">GND</text>
   </g>
  </g>
 </g>
 <g partID="855138600">
  <g transform="translate(124.641,206.401)">
   <g id="breadboard" >
    <text id="label" stroke-width="0" font-family="Droid Sans"  x="7.2" text-anchor="middle" font-size="7.2" y="6.48" xmlns:xml="http://www.w3.org/XML/1998/namespace" xml:space="preserve" fill="#26a269">TX</text>
   </g>
  </g>
 </g>
 <g partID="855138580">
  <g transform="translate(124.641,197.401)">
   <g id="breadboard" >
    <text id="label" stroke-width="0" font-family="Droid Sans"  x="10.8" text-anchor="middle" font-size="7.2" y="6.48" xmlns:xml="http://www.w3.org/XML/1998/namespace" xml:space="preserve" fill="#000000">GND</text>
   </g>
  </g>
 </g>
 <g partID="855138560">
  <g transform="translate(124.641,172.401)">
   <g id="breadboard" >
    <text id="label" stroke-width="0" font-family="Droid Sans"  x="7.2" text-anchor="middle" font-size="7.2" y="6.48" xmlns:xml="http://www.w3.org/XML/1998/namespace" xml:space="preserve" fill="#99c1f1">RX</text>
   </g>
  </g>
 </g>
 <g partID="855138690">
  <g transform="translate(239.445,118.191)">
   <g id="breadboard" >
    <text id="label" stroke-width="0" font-family="Droid Sans"  x="10.8" text-anchor="middle" font-size="7.2" y="6.48" xmlns:xml="http://www.w3.org/XML/1998/namespace" xml:space="preserve" fill="#787878">3v3</text>
   </g>
  </g>
 </g>
 <g partID="855138720">
  <g transform="translate(238.965,103.189)">
   <g id="breadboard" >
    <text id="label" stroke-width="0" font-family="Droid Sans"  x="10.8" text-anchor="middle" font-size="7.2" y="6.48" xmlns:xml="http://www.w3.org/XML/1998/namespace" xml:space="preserve" fill="#787878">GND</text>
   </g>
  </g>
 </g>
 <g partID="855139510">
  <g transform="translate(262.821,219.673)">
   <g id="breadboard" >
    <text id="label" stroke-width="0" font-family="Droid Sans"  x="10.8" text-anchor="middle" font-size="7.2" y="6.48" xmlns:xml="http://www.w3.org/XML/1998/namespace" xml:space="preserve" fill="#787878">3V3</text>
   </g>
  </g>
 </g>
 <g partID="855139680">
  <g transform="translate(297.686,220.014)">
   <g id="breadboard" >
    <text id="label" stroke-width="0" font-family="Droid Sans"  x="7.2" text-anchor="middle" font-size="7.2" y="6.48" xmlns:xml="http://www.w3.org/XML/1998/namespace" xml:space="preserve" fill="#787878">5V</text>
   </g>
  </g>
 </g>
 <g partID="855139710">
  <g transform="translate(191.596,227.221)">
   <g id="breadboard" >
    <text id="label" stroke-width="0" font-family="Droid Sans"  x="10.8" text-anchor="middle" font-size="7.2" y="6.48" xmlns:xml="http://www.w3.org/XML/1998/namespace" xml:space="preserve" fill="#787878">GND</text>
   </g>
  </g>
 </g>
 <g partID="57870">
  <g transform="translate(145.61,165.331)">
   <g transform="matrix(0,-1,1,0,0,0)">
    <g id="breadboard" >
     <g >
      <polygon  fill="#8C8C8C" points="14.8219,23.7449,14.8219,15.4706,16.9819,15.4706,16.9819,23.7449"/>
      <polygon  fill="#8C8C8C" points="0.42192,8.27496,0.42192,0.00072,2.58048,0.00072,2.58048,8.27496"/>
      <polygon  fill="#8C8C8C" points="14.8219,8.27568,14.8219,0,16.9819,0,16.9819,8.27568"/>
      <polygon  fill="#8C8C8C" points="0.42264,23.7463,0.42264,15.4706,2.58192,15.4706,2.58192,23.7463"/>
      <rect height="17.6544"  x="0.00864" y="3.04704" width="17.653"/>
      <path d="M17.6609,19.2614c0,0.79272,-0.64512,1.43928,-1.44,1.43928L1.44792,20.7007c-0.79272,0,-1.43928,-0.64656,-1.43928,-1.43928L0.00864,4.4856c0,-0.792,0.64656,-1.43856,1.43928,-1.43856l14.7751,0c0.79416,0,1.43784,0.64656,1.43784,1.43856L17.6609,19.2614L17.6609,19.2614z"  fill="#999999"/>
      <circle cx="2.57976"  r="1.52928" cy="5.61816"/>
      <circle cx="15.133"  r="1.52928" cy="5.6448"/>
      <circle cx="15.1063"  r="1.52928" cy="18.198"/>
      <circle cx="2.55312"  r="1.52928" cy="18.1699"/>
      <circle cx="8.8344"  r="5.148" cy="11.8735" fill="#3F3F3F"/>
      <linearGradient id="SVGID_1_" gradientTransform="matrix(1 0 0 -1 273 -448.8574)"  x1="-192.873" x2="-182.577" gradientUnits="userSpaceOnUse" y1="-335.051" y2="-335.051">
       <stop offset="0" style="stop-color:#333333" />
       <stop offset="1" style="stop-color:#3C3C3C" />
      </linearGradient>
      <circle cx="8.8344"  r="5.148" cy="11.8735" fill="url(#SVGID_1_)"/>
      <circle cx="8.9244" opacity="0.6"  r="4.53024" enable-background="new    " cy="12.4855"/>
      <circle cx="8.84088"  r="4.41504" cy="11.9038" fill="#735348"/>
      <path opacity="0.5" d="M2.38176,5.53824c0.03024,-0.072,0.08568,-0.12744,0.16416,-0.14112L2.39472,4.43376C2.33712,4.44312,2.27592,4.4352,2.21904,4.45248L2.2176,4.44816C1.8612,4.55832,1.5948,4.824,1.45872,5.16312L2.38176,5.53824z"  enable-background="new    " fill="#FFFFFF"/>
      <path opacity="0.5" d="M14.9335,5.56416c0.02952,-0.07344,0.08496,-0.12888,0.16488,-0.14184l-0.14904,-0.96336c-0.05904,0.0108,-0.11952,0.00144,-0.1764,0.01872l-0.00216,-0.00504c-0.35496,0.10944,-0.62208,0.37512,-0.75816,0.71496L14.9335,5.56416z"  enable-background="new    " fill="#FFFFFF"/>
      <path opacity="0.5" d="M14.909,18.1174c0.02952,-0.07344,0.08352,-0.1296,0.16344,-0.14184l-0.14904,-0.96264c-0.05904,0.0108,-0.11952,0.00144,-0.17712,0.01872l-0.00144,-0.0072c-0.35568,0.10944,-0.6228,0.37512,-0.75816,0.71568L14.909,18.1174z"  enable-background="new    " fill="#FFFFFF"/>
      <path opacity="0.5" d="M2.35512,18.0907c0.02952,-0.07344,0.08496,-0.12672,0.16488,-0.1404l-0.1512,-0.96408c-0.05904,0.01224,-0.11952,0.00144,-0.1764,0.01944l-0.00144,-0.00504c-0.3564,0.108,-0.6228,0.37512,-0.76032,0.71424L2.35512,18.0907z"  enable-background="new    " fill="#FFFFFF"/>
      <path opacity="0.6" d="M10.4206,7.78896c-0.342,-0.1332,-0.702,-0.22896,-1.08288,-0.27216c-0.94752,-0.10584,-1.85472,0.1044,-2.63016,0.53424L6.61104,8.3016c0.86616,-0.46296,1.87488,-0.67752,2.92464,-0.56016c0.32256,0.03744,0.63648,0.10944,0.93672,0.20448L10.4206,7.78896z"  enable-background="new    " fill="#FFFFFF"/>
     </g>
    </g>
   </g>
  </g>
 </g>
 <g partID="855117850">
  <g transform="translate(157.04,174.617)">
   <g transform="matrix(-5.55112e-17,1,-1,-5.55112e-17,0,0)">
    <g id="breadboard" >
     <rect height="7.2"  fill="#404040" width="14.4"/>
     <rect id="connector0pin" height="2.78312"  x="2.20843" y="2.20843" fill="none" width="2.78312"/>
     <g id="connector0terminal" height="2.25658"  x="2.51834" y="2.47054" fill="none" width="2.15829"/>
     <rect height="2.78312"  x="2.20843" y="2.20843" width="2.78312"/>
     <polygon  fill="#2A2A29" points="1.18445,1.18445,2.20843,2.20843,4.99156,2.20843,6.01654,1.18445"/>
     <polygon  fill="#474747" points="6.01654,1.18445,4.99156,2.20843,4.99156,4.99156,6.01654,6.01654"/>
     <polygon  fill="#595959" points="6.01654,6.01654,4.99156,4.99156,2.20843,4.99156,1.18445,6.01654"/>
     <polygon  fill="#373737" points="1.18445,6.01654,2.20843,4.99156,2.20843,2.20843,1.18445,1.18445"/>
     <rect id="connector1pin" height="2.78312"  x="9.40846" y="2.20843" fill="none" width="2.78312"/>
     <g id="connector1terminal" height="2.25658"  x="9.71834" y="2.47054" fill="none" width="2.15829"/>
     <rect height="2.78312"  x="9.40846" y="2.20843" width="2.78312"/>
     <polygon  fill="#2A2A29" points="8.38447,1.18445,9.40846,2.20843,12.1915,2.20843,13.2165,1.18445"/>
     <polygon  fill="#474747" points="13.2165,1.18445,12.1915,2.20843,12.1915,4.99156,13.2165,6.01654"/>
     <polygon  fill="#595959" points="13.2165,6.01654,12.1915,4.99156,9.40846,4.99156,8.38447,6.01654"/>
     <polygon  fill="#373737" points="8.38447,6.01654,9.40846,4.99156,9.40846,2.20843,8.38447,1.18445"/>
    </g>
   </g>
  </g>
 </g>
 <g partID="855117880">
  <g transform="translate(157.04,189.017)">
   <g transform="matrix(0,1,-1,0,0,0)">
    <g id="breadboard" >
     <rect height="7.2"  fill="#404040" width="14.4"/>
     <rect id="connector0pin" height="2.78312"  x="2.20843" y="2.20843" fill="none" width="2.78312"/>
     <g id="connector0terminal" height="2.25658"  x="2.51834" y="2.47054" fill="none" width="2.15829"/>
     <rect height="2.78312"  x="2.20843" y="2.20843" width="2.78312"/>
     <polygon  fill="#2A2A29" points="1.18445,1.18445,2.20843,2.20843,4.99156,2.20843,6.01654,1.18445"/>
     <polygon  fill="#474747" points="6.01654,1.18445,4.99156,2.20843,4.99156,4.99156,6.01654,6.01654"/>
     <polygon  fill="#595959" points="6.01654,6.01654,4.99156,4.99156,2.20843,4.99156,1.18445,6.01654"/>
     <polygon  fill="#373737" points="1.18445,6.01654,2.20843,4.99156,2.20843,2.20843,1.18445,1.18445"/>
     <rect id="connector1pin" height="2.78312"  x="9.40846" y="2.20843" fill="none" width="2.78312"/>
     <g id="connector1terminal" height="2.25658"  x="9.71834" y="2.47054" fill="none" width="2.15829"/>
     <rect height="2.78312"  x="9.40846" y="2.20843" width="2.78312"/>
     <polygon  fill="#2A2A29" points="8.38447,1.18445,9.40846,2.20843,12.1915,2.20843,13.2165,1.18445"/>
     <polygon  fill="#474747" points="13.2165,1.18445,12.1915,2.20843,12.1915,4.99156,13.2165,6.01654"/>
     <polygon  fill="#595959" points="13.2165,6.01654,12.1915,4.99156,9.40846,4.99156,8.38447,6.01654"/>
     <polygon  fill="#373737" points="8.38447,6.01654,9.40846,4.99156,9.40846,2.20843,8.38447,1.18445"/>
    </g>
   </g>
  </g>
 </g>
 <g partID="855117910">
  <g transform="translate(157.04,196.217)">
   <g transform="matrix(0,1,-1,0,0,0)">
    <g id="breadboard" >
     <rect height="7.2"  fill="#404040" width="14.4"/>
     <rect id="connector0pin" height="2.78312"  x="2.20843" y="2.20843" fill="none" width="2.78312"/>
     <g id="connector0terminal" height="2.25658"  x="2.51834" y="2.47054" fill="none" width="2.15829"/>
     <rect height="2.78312"  x="2.20843" y="2.20843" width="2.78312"/>
     <polygon  fill="#2A2A29" points="1.18445,1.18445,2.20843,2.20843,4.99156,2.20843,6.01654,1.18445"/>
     <polygon  fill="#474747" points="6.01654,1.18445,4.99156,2.20843,4.99156,4.99156,6.01654,6.01654"/>
     <polygon  fill="#595959" points="6.01654,6.01654,4.99156,4.99156,2.20843,4.99156,1.18445,6.01654"/>
     <polygon  fill="#373737" points="1.18445,6.01654,2.20843,4.99156,2.20843,2.20843,1.18445,1.18445"/>
     <rect id="connector1pin" height="2.78312"  x="9.40846" y="2.20843" fill="none" width="2.78312"/>
     <g id="connector1terminal" height="2.25658"  x="9.71834" y="2.47054" fill="none" width="2.15829"/>
     <rect height="2.78312"  x="9.40846" y="2.20843" width="2.78312"/>
     <polygon  fill="#2A2A29" points="8.38447,1.18445,9.40846,2.20843,12.1915,2.20843,13.2165,1.18445"/>
     <polygon  fill="#474747" points="13.2165,1.18445,12.1915,2.20843,12.1915,4.99156,13.2165,6.01654"/>
     <polygon  fill="#595959" points="13.2165,6.01654,12.1915,4.99156,9.40846,4.99156,8.38447,6.01654"/>
     <polygon  fill="#373737" points="8.38447,6.01654,9.40846,4.99156,9.40846,2.20843,8.38447,1.18445"/>
    </g>
   </g>
  </g>
 </g>
 <g partID="855141050">
  <g transform="translate(189.007,51.3999)">
   <g id="breadboard" >
    <text id="label" stroke-width="0" font-family="Droid Sans"  x="25.2283" text-anchor="middle" font-size="7.20809" y="6.48728" xmlns:xml="http://www.w3.org/XML/1998/namespace" xml:space="preserve" fill="#62a0ea">PrintPY</text>
   </g>
  </g>
 </g>
 <g partID="855141080">
  <g transform="translate(265.563,64.7408)">
   <g id="breadboard" >
    <text id="label" stroke-width="0" font-family="Droid Sans"  x="26.384" text-anchor="middle" font-size="4.79709" y="4.31738" xmlns:xml="http://www.w3.org/XML/1998/namespace" xml:space="preserve" fill="#62a0ea">easytarget/</text>
   </g>
  </g>
 </g>
 <g partID="855141670">
  <g transform="translate(268.964,54.4982)">
   <g id="breadboard" >
    <text id="label" stroke-width="0" font-family="Droid Sans"  x="19.1884" text-anchor="middle" font-size="4.79709" y="4.31738" xmlns:xml="http://www.w3.org/XML/1998/namespace" xml:space="preserve" fill="#62a0ea">https://</text>
   </g>
  </g>
 </g>
 <g partID="855141650">
  <g transform="translate(266.574,69.98)">
   <g id="breadboard" >
    <text id="label" stroke-width="0" font-family="Droid Sans"  x="26.384" text-anchor="middle" font-size="4.79709" y="4.31738" xmlns:xml="http://www.w3.org/XML/1998/namespace" xml:space="preserve" fill="#62a0ea">PrintPy2040</text>
   </g>
  </g>
 </g>
 <g partID="855141630">
  <g transform="translate(266.606,59.5712)">
   <g id="breadboard" >
    <text id="label" stroke-width="0" font-family="Droid Sans"  x="26.384" text-anchor="middle" font-size="4.79709" y="4.31738" xmlns:xml="http://www.w3.org/XML/1998/namespace" xml:space="preserve" fill="#62a0ea">github.com/</text>
   </g>
  </g>
 </g>
 <g partID="855141140">
  <g transform="translate(200.307,61.0274)">
   <g id="breadboard" >
    <text id="label" stroke-width="0" font-family="Droid Sans"  x="14.4567" text-anchor="middle" font-size="7.22835" y="6.50552" xmlns:xml="http://www.w3.org/XML/1998/namespace" xml:space="preserve" fill="#62a0ea">2040</text>
   </g>
  </g>
 </g>
 <g partID="855141170">
  <g transform="translate(248.663,188.572)">
   <g id="breadboard" >
    <text id="label" stroke-width="0" font-family="Droid Sans"  x="14.4" text-anchor="middle" font-size="7.2" y="6.48" xmlns:xml="http://www.w3.org/XML/1998/namespace" xml:space="preserve" fill="#787878">XIAO</text>
   </g>
  </g>
 </g>
 <g partID="855141200">
  <g transform="translate(248.338,196.685)">
   <g id="breadboard" >
    <text id="label" stroke-width="0" font-family="Droid Sans"  x="14.4" text-anchor="middle" font-size="7.2" y="6.48" xmlns:xml="http://www.w3.org/XML/1998/namespace" xml:space="preserve" fill="#787878">2040</text>
   </g>
  </g>
 </g>
 <g partID="855141230">
  <g transform="translate(217.832,10.3991)">
   <g id="breadboard" >
    <text id="label" stroke-width="0" font-family="Droid Sans"  x="36" text-anchor="middle" font-size="7.2" y="6.48" xmlns:xml="http://www.w3.org/XML/1998/namespace" xml:space="preserve" fill="#787878">2xOLED I2C</text>
   </g>
  </g>
 </g>
 <g partID="855141260">
  <g transform="translate(111.383,152.223)">
   <g id="breadboard" >
    <text id="label" stroke-width="0" font-family="Droid Sans"  x="21.5433" text-anchor="middle" font-size="7.1811" y="6.463" xmlns:xml="http://www.w3.org/XML/1998/namespace" xml:space="preserve" fill="#000000">Button</text>
   </g>
  </g>
 </g>
 <g partID="855141400">
  <g transform="translate(0,99.9067)">
   <g id="breadboard" >
    <text id="label" stroke-width="0" font-family="Droid Sans"  x="117.779" text-anchor="middle" font-size="8.7244" y="7.85197" xmlns:xml="http://www.w3.org/XML/1998/namespace" xml:space="preserve" fill="#5e5c64">Alternate: Single I2C port:</text>
   </g>
  </g>
 </g>
 <g partID="855141430">
  <g transform="translate(17.2633,122.119)">
   <g id="breadboard" >
    <text id="label" stroke-width="0" font-family="Droid Sans"  x="101.393" text-anchor="middle" font-size="6.54148" y="5.88733" xmlns:xml="http://www.w3.org/XML/1998/namespace" xml:space="preserve" fill="#787878">I2C address jumpers on one OLED</text>
   </g>
  </g>
 </g>
 <g partID="855141450">
  <g transform="translate(17.9239,112.688)">
   <g id="breadboard" >
    <text id="label" stroke-width="0" font-family="Droid Sans"  x="94.8517" text-anchor="middle" font-size="6.5415" y="5.88733" xmlns:xml="http://www.w3.org/XML/1998/namespace" xml:space="preserve" fill="#787878">Share the I2C bus by changing</text>
   </g>
  </g>
 </g>
 <g partID="855141500">
  <g transform="translate(10.224,130.932)">
   <g id="breadboard" >
    <text id="label" stroke-width="0" font-family="Droid Sans"  x="101.393" text-anchor="middle" font-size="6.54148" y="5.88733" xmlns:xml="http://www.w3.org/XML/1998/namespace" xml:space="preserve" fill="#787878"> and wiring SDA/SCK in parallel</text>
   </g>
  </g>
 </g>
 <g partID="855141520">
  <g transform="translate(223.759,139.622)">
   <g id="breadboard" >
    <text id="label" stroke-width="0" font-family="Droid Sans"  x="14.4" text-anchor="middle" font-size="7.2" y="6.48" xmlns:xml="http://www.w3.org/XML/1998/namespace" xml:space="preserve" fill="#787878">I2C1</text>
   </g>
  </g>
 </g>
 <g partID="855141550">
  <g transform="translate(258.246,132.729)">
   <g id="breadboard" >
    <text id="label" stroke-width="0" font-family="Droid Sans"  x="14.4" text-anchor="middle" font-size="7.2" y="6.48" xmlns:xml="http://www.w3.org/XML/1998/namespace" xml:space="preserve" fill="#787878">I2C0</text>
   </g>
  </g>
 </g>
 <g partID="855141600">
  <g transform="translate(189.951,69.5454)">
   <g id="breadboard" >
    <text id="label" stroke-width="0" font-family="Droid Sans"  x="25.2283" text-anchor="middle" font-size="7.20809" y="6.48728" xmlns:xml="http://www.w3.org/XML/1998/namespace" xml:space="preserve" fill="#62a0ea">By Owen</text>
   </g>
  </g>
 </g>
 <g partID="855141690">
  <g transform="translate(89.963,187.922)">
   <g id="breadboard" >
    <text id="label" stroke-width="0" font-family="Droid Sans"  x="21.805" text-anchor="middle" font-size="10.9025" y="9.81222" xmlns:xml="http://www.w3.org/XML/1998/namespace" xml:space="preserve" fill="#787878">&lt;==></text>
   </g>
  </g>
 </g>
 <g partID="855139340">
  <line stroke="#000000" stroke-width="3.2" stroke-linecap="round" x1="225.461" x2="304.473" y1="113.415" y2="113.415"/>
  <line stroke="#404040" stroke-width="1.6" stroke-linecap="round" x1="225.461" x2="304.473" y1="113.415" y2="113.415"/>
 </g>
 <g partID="855131050">
  <line stroke="#000000" stroke-width="3.2" stroke-linecap="round" x1="304.473" x2="304.641" y1="113.415" y2="91.8157"/>
  <line stroke="#404040" stroke-width="1.6" stroke-linecap="round" x1="304.473" x2="304.641" y1="113.415" y2="91.8157"/>
 </g>
 <g partID="855139480">
  <line stroke="#000000" stroke-width="3.2" stroke-linecap="round" x1="225.366" x2="225.366" y1="113.415" y2="91.8022"/>
  <line stroke="#404040" stroke-width="1.6" stroke-linecap="round" x1="225.366" x2="225.366" y1="113.415" y2="91.8022"/>
 </g>
 <g partID="855139080">
  <line stroke="#000000" stroke-width="3.2" stroke-linecap="round" x1="174.893" x2="225.366" y1="113.415" y2="113.415"/>
  <line stroke="#404040" stroke-width="1.6" stroke-linecap="round" x1="174.893" x2="225.366" y1="113.415" y2="113.415"/>
 </g>
 <g partID="855133130">
  <line stroke="#000000" stroke-width="3.2" stroke-linecap="round" x1="175.011" x2="174.893" y1="185.394" y2="113.415"/>
  <line stroke="#404040" stroke-width="1.6" stroke-linecap="round" x1="175.011" x2="174.893" y1="185.394" y2="113.415"/>
 </g>
 <g partID="855130470">
  <line stroke="#000000" stroke-width="3.2" stroke-linecap="round" x1="153.441" x2="175.01" y1="185.415" y2="185.394"/>
  <line stroke="#404040" stroke-width="1.6" stroke-linecap="round" x1="153.441" x2="175.01" y1="185.415" y2="185.394"/>
 </g>
 <g partID="855132310">
  <line stroke="#00a0c6" stroke-width="3.2" stroke-linecap="round" x1="239.696" x2="153.441" y1="178.323" y2="178.215"/>
  <line stroke="#33ffc5" stroke-width="1.6" stroke-linecap="round" x1="239.696" x2="153.441" y1="178.323" y2="178.215"/>
 </g>
 <g partID="855132240">
  <line stroke="#00a0c6" stroke-width="3.2" stroke-linecap="round" x1="239.696" x2="239.696" y1="170.858" y2="178.323"/>
  <line stroke="#33ffc5" stroke-width="1.6" stroke-linecap="round" x1="239.696" x2="239.696" y1="170.858" y2="178.323"/>
 </g>
 <g partID="855131790">
  <line stroke="#00a0c6" stroke-width="3.2" stroke-linecap="round" x1="254.241" x2="239.696" y1="170.979" y2="170.858"/>
  <line stroke="#33ffc5" stroke-width="1.6" stroke-linecap="round" x1="254.241" x2="239.696" y1="170.979" y2="170.858"/>
 </g>
 <g partID="855132940">
  <line stroke="#00a527" stroke-width="3.2" stroke-linecap="round" x1="254.3" x2="254.241" y1="214.347" y2="214.215"/>
  <line stroke="#25cc35" stroke-width="1.6" stroke-linecap="round" x1="254.3" x2="254.241" y1="214.347" y2="214.215"/>
 </g>
 <g partID="855132870">
  <line stroke="#00a527" stroke-width="3.2" stroke-linecap="round" x1="239.696" x2="254.3" y1="214.347" y2="214.347"/>
  <line stroke="#25cc35" stroke-width="1.6" stroke-linecap="round" x1="239.696" x2="254.3" y1="214.347" y2="214.347"/>
 </g>
 <g partID="855132540">
  <line stroke="#00a527" stroke-width="3.2" stroke-linecap="round" x1="239.696" x2="239.696" y1="206.882" y2="214.347"/>
  <line stroke="#25cc35" stroke-width="1.6" stroke-linecap="round" x1="239.696" x2="239.696" y1="206.882" y2="214.347"/>
 </g>
 <g partID="855132470">
  <line stroke="#00a527" stroke-width="3.2" stroke-linecap="round" x1="254.3" x2="254.3" y1="214.347" y2="214.347"/>
  <line stroke="#25cc35" stroke-width="1.6" stroke-linecap="round" x1="254.3" x2="254.3" y1="214.347" y2="214.347"/>
 </g>
 <g partID="855132400">
  <line stroke="#00a527" stroke-width="3.2" stroke-linecap="round" x1="153.441" x2="239.696" y1="207.015" y2="206.882"/>
  <line stroke="#25cc35" stroke-width="1.6" stroke-linecap="round" x1="153.441" x2="239.696" y1="207.015" y2="206.882"/>
 </g>
 <g partID="855138850">
  <line stroke="#ad6a38" stroke-width="3.2" stroke-linecap="round" x1="218.35" x2="218.35" y1="127.637" y2="91.6863"/>
  <line stroke="#ef6100" stroke-width="1.6" stroke-linecap="round" x1="218.35" x2="218.35" y1="127.637" y2="91.6863"/>
 </g>
 <g partID="855138750">
  <line stroke="#ad6a38" stroke-width="3.2" stroke-linecap="round" x1="297.362" x2="218.349" y1="127.637" y2="127.637"/>
  <line stroke="#ef6100" stroke-width="1.6" stroke-linecap="round" x1="297.362" x2="218.349" y1="127.637" y2="127.637"/>
 </g>
 <g partID="855135150">
  <line stroke="#ad6a38" stroke-width="3.2" stroke-linecap="round" x1="218.35" x2="218.366" y1="91.6863" y2="113.415"/>
  <line stroke="#ef6100" stroke-width="1.6" stroke-linecap="round" x1="218.35" x2="218.366" y1="91.6863" y2="113.415"/>
 </g>
 <g partID="855133860">
  <line stroke="#ad6a38" stroke-width="3.2" stroke-linecap="round" x1="282.934" x2="283.041" y1="228.591" y2="214.214"/>
  <line stroke="#ef6100" stroke-width="1.6" stroke-linecap="round" x1="282.934" x2="283.041" y1="228.591" y2="214.214"/>
 </g>
 <g partID="855133790">
  <line stroke="#ad6a38" stroke-width="3.2" stroke-linecap="round" x1="218.366" x2="282.934" y1="228.591" y2="228.591"/>
  <line stroke="#ef6100" stroke-width="1.6" stroke-linecap="round" x1="218.366" x2="282.934" y1="228.591" y2="228.591"/>
 </g>
 <g partID="855133030">
  <line stroke="#ad6a38" stroke-width="3.2" stroke-linecap="round" x1="297.362" x2="297.362" y1="127.637" y2="127.637"/>
  <line stroke="#ef6100" stroke-width="1.6" stroke-linecap="round" x1="297.362" x2="297.362" y1="127.637" y2="127.637"/>
 </g>
 <g partID="855132770">
  <line stroke="#ad6a38" stroke-width="3.2" stroke-linecap="round" x1="297.441" x2="297.362" y1="91.8148" y2="127.637"/>
  <line stroke="#ef6100" stroke-width="1.6" stroke-linecap="round" x1="297.441" x2="297.362" y1="91.8148" y2="127.637"/>
 </g>
 <g partID="855132700">
  <line stroke="#ad6a38" stroke-width="3.2" stroke-linecap="round" x1="218.366" x2="218.366" y1="113.415" y2="228.591"/>
  <line stroke="#ef6100" stroke-width="1.6" stroke-linecap="round" x1="218.366" x2="218.366" y1="113.415" y2="228.591"/>
 </g>
 <g partID="855133270">
  <line stroke="#000000" stroke-width="3.2" stroke-linecap="round" x1="175.011" x2="153.441" y1="199.79" y2="199.814"/>
  <line stroke="#404040" stroke-width="1.6" stroke-linecap="round" x1="175.011" x2="153.441" y1="199.79" y2="199.814"/>
 </g>
 <g partID="855133240">
  <line stroke="#000000" stroke-width="3.2" stroke-linecap="round" x1="174.667" x2="175.01" y1="185.052" y2="199.79"/>
  <line stroke="#404040" stroke-width="1.6" stroke-linecap="round" x1="174.667" x2="175.01" y1="185.052" y2="199.79"/>
 </g>
 <g partID="855133550">
  <line stroke="#8c0000" stroke-width="3.2" stroke-linecap="round" x1="297.394" x2="297.441" y1="243.05" y2="214.214"/>
  <line stroke="#cc1414" stroke-width="1.6" stroke-linecap="round" x1="297.394" x2="297.441" y1="243.05" y2="214.214"/>
 </g>
 <g partID="855133480">
  <line stroke="#8c0000" stroke-width="3.2" stroke-linecap="round" x1="189.447" x2="297.393" y1="243.05" y2="243.05"/>
  <line stroke="#cc1414" stroke-width="1.6" stroke-linecap="round" x1="189.447" x2="297.393" y1="243.05" y2="243.05"/>
 </g>
 <g partID="855133410">
  <line stroke="#8c0000" stroke-width="3.2" stroke-linecap="round" x1="189.447" x2="189.447" y1="192.692" y2="243.05"/>
  <line stroke="#cc1414" stroke-width="1.6" stroke-linecap="round" x1="189.447" x2="189.447" y1="192.692" y2="243.05"/>
 </g>
 <g partID="855133340">
  <line stroke="#8c0000" stroke-width="3.2" stroke-linecap="round" x1="153.441" x2="189.447" y1="192.615" y2="192.692"/>
  <line stroke="#cc1414" stroke-width="1.6" stroke-linecap="round" x1="153.441" x2="189.447" y1="192.615" y2="192.692"/>
 </g>
 <g partID="855134070">
  <line stroke="#000000" stroke-width="3.2" stroke-linecap="round" x1="174.987" x2="290.163" y1="235.82" y2="235.82"/>
  <line stroke="#404040" stroke-width="1.6" stroke-linecap="round" x1="174.987" x2="290.163" y1="235.82" y2="235.82"/>
 </g>
 <g partID="855134000">
  <line stroke="#000000" stroke-width="3.2" stroke-linecap="round" x1="290.163" x2="290.241" y1="235.82" y2="214.214"/>
  <line stroke="#404040" stroke-width="1.6" stroke-linecap="round" x1="290.163" x2="290.241" y1="235.82" y2="214.214"/>
 </g>
 <g partID="855133930">
  <line stroke="#000000" stroke-width="3.2" stroke-linecap="round" x1="174.987" x2="174.987" y1="199.922" y2="235.821"/>
  <line stroke="#404040" stroke-width="1.6" stroke-linecap="round" x1="174.987" x2="174.987" y1="199.922" y2="235.821"/>
 </g>
 <g partID="855138820">
  <line stroke="#ad6a38" stroke-width="3.2" stroke-linecap="round" x1="218.35" x2="218.35" y1="127.637" y2="127.637"/>
  <line stroke="#ef6100" stroke-width="1.6" stroke-linecap="round" x1="218.35" x2="218.35" y1="127.637" y2="127.637"/>
 </g>
 <g partID="855135120">
  <line stroke="#ad6a38" stroke-width="3.2" stroke-linecap="round" x1="218.35" x2="218.35" y1="127.637" y2="127.637"/>
  <line stroke="#ef6100" stroke-width="1.6" stroke-linecap="round" x1="218.35" x2="218.35" y1="127.637" y2="127.637"/>
 </g>
 <g partID="855134610">
  <line stroke="#7a3a73" stroke-width="3.2" stroke-linecap="round" x1="261.495" x2="261.441" y1="156.543" y2="170.979"/>
  <line stroke="#ab58a2" stroke-width="1.6" stroke-linecap="round" x1="261.495" x2="261.441" y1="156.543" y2="170.979"/>
 </g>
 <g partID="855134500">
  <line stroke="#7a3a73" stroke-width="3.2" stroke-linecap="round" x1="211.136" x2="261.495" y1="156.543" y2="156.543"/>
  <line stroke="#ab58a2" stroke-width="1.6" stroke-linecap="round" x1="211.136" x2="261.495" y1="156.543" y2="156.543"/>
 </g>
 <g partID="855134430">
  <line stroke="#7a3a73" stroke-width="3.2" stroke-linecap="round" x1="211.041" x2="211.136" y1="91.8147" y2="156.543"/>
  <line stroke="#ab58a2" stroke-width="1.6" stroke-linecap="round" x1="211.041" x2="211.136" y1="91.8147" y2="156.543"/>
 </g>
 <g partID="855134840">
  <line stroke="#6c2710" stroke-width="3.2" stroke-linecap="round" x1="268.724" x2="203.906" y1="149.314" y2="149.314"/>
  <line stroke="#8c3b00" stroke-width="1.6" stroke-linecap="round" x1="268.724" x2="203.906" y1="149.314" y2="149.314"/>
 </g>
 <g partID="855134770">
  <line stroke="#6c2710" stroke-width="3.2" stroke-linecap="round" x1="203.907" x2="203.844" y1="149.314" y2="91.8147"/>
  <line stroke="#8c3b00" stroke-width="1.6" stroke-linecap="round" x1="203.907" x2="203.844" y1="149.314" y2="91.8147"/>
 </g>
 <g partID="855134700">
  <line stroke="#6c2710" stroke-width="3.2" stroke-linecap="round" x1="268.641" x2="268.724" y1="170.979" y2="149.314"/>
  <line stroke="#8c3b00" stroke-width="1.6" stroke-linecap="round" x1="268.641" x2="268.724" y1="170.979" y2="149.314"/>
 </g>
 <g partID="855135050">
  <line stroke="#6c2710" stroke-width="3.2" stroke-linecap="round" x1="282.934" x2="283.044" y1="91.7257" y2="91.8148"/>
  <line stroke="#8c3b00" stroke-width="1.6" stroke-linecap="round" x1="282.934" x2="283.044" y1="91.7257" y2="91.8148"/>
 </g>
 <g partID="855134980">
  <line stroke="#6c2710" stroke-width="3.2" stroke-linecap="round" x1="282.934" x2="282.934" y1="171.003" y2="91.7257"/>
  <line stroke="#8c3b00" stroke-width="1.6" stroke-linecap="round" x1="282.934" x2="282.934" y1="171.003" y2="91.7257"/>
 </g>
 <g partID="855134910">
  <line stroke="#6c2710" stroke-width="3.2" stroke-linecap="round" x1="283.041" x2="282.934" y1="170.979" y2="171.003"/>
  <line stroke="#8c3b00" stroke-width="1.6" stroke-linecap="round" x1="283.041" x2="282.934" y1="170.979" y2="171.003"/>
 </g>
 <g partID="855135380">
  <line stroke="#7a3a73" stroke-width="3.2" stroke-linecap="round" x1="290.324" x2="275.72" y1="156.579" y2="156.579"/>
  <line stroke="#ab58a2" stroke-width="1.6" stroke-linecap="round" x1="290.324" x2="275.72" y1="156.579" y2="156.579"/>
 </g>
 <g partID="855135310">
  <line stroke="#7a3a73" stroke-width="3.2" stroke-linecap="round" x1="275.72" x2="275.841" y1="156.579" y2="170.979"/>
  <line stroke="#ab58a2" stroke-width="1.6" stroke-linecap="round" x1="275.72" x2="275.841" y1="156.579" y2="170.979"/>
 </g>
 <g partID="855135240">
  <line stroke="#7a3a73" stroke-width="3.2" stroke-linecap="round" x1="290.241" x2="290.324" y1="91.8148" y2="156.579"/>
  <line stroke="#ab58a2" stroke-width="1.6" stroke-linecap="round" x1="290.241" x2="290.324" y1="91.8148" y2="156.579"/>
 </g>
 <g partID="855135830">
  <line stroke="#000000" stroke-width="3.2" stroke-linecap="round" x1="167.841" x2="174.987" y1="149.415" y2="149.314"/>
  <line stroke="#404040" stroke-width="1.6" stroke-linecap="round" x1="167.841" x2="174.987" y1="149.415" y2="149.314"/>
 </g>
 <g partID="855136090">
  <line stroke="#666666" stroke-width="3.2" stroke-linecap="round" x1="203.761" x2="167.841" y1="163.801" y2="163.815"/>
  <line stroke="#999999" stroke-width="1.6" stroke-linecap="round" x1="203.761" x2="167.841" y1="163.801" y2="163.815"/>
 </g>
 <g partID="855136020">
  <line stroke="#666666" stroke-width="3.2" stroke-linecap="round" x1="203.761" x2="203.761" y1="221.554" y2="163.801"/>
  <line stroke="#999999" stroke-width="1.6" stroke-linecap="round" x1="203.761" x2="203.761" y1="221.554" y2="163.801"/>
 </g>
 <g partID="855135950">
  <line stroke="#666666" stroke-width="3.2" stroke-linecap="round" x1="261.494" x2="203.761" y1="221.361" y2="221.554"/>
  <line stroke="#999999" stroke-width="1.6" stroke-linecap="round" x1="261.494" x2="203.761" y1="221.361" y2="221.554"/>
 </g>
 <g partID="855135880">
  <line stroke="#666666" stroke-width="3.2" stroke-linecap="round" x1="261.441" x2="261.494" y1="214.215" y2="221.361"/>
  <line stroke="#999999" stroke-width="1.6" stroke-linecap="round" x1="261.441" x2="261.494" y1="214.215" y2="221.361"/>
 </g>
 <g partID="855138650">
  <g transform="translate(34.3531,172.244)">
   <g>
    <rect stroke="#fabc4f" stroke-width="5.6" height="36" x="2.8" y="2.8" width="57.4703" fill="#ffe9c8"/>
    <g font-family="Droid Sans" stroke="none" text-anchor="left" font-size="9.6" fill="#000000">
     <text x="8.8" y="18.4" fill="#000000">Duet/RRF</text>
    </g>
    <g font-family="Droid Sans" stroke="none" text-anchor="left" font-size="9.6" fill="#000000">
     <text x="8.8" y="30.4" fill="#000000">UART port</text>
    </g>
   </g>
  </g>
 </g>
 <g partID="855141720">
  <g transform="translate(31.1624,0)">
   <g>
    <rect stroke="#fabc4f" stroke-width="5.6" height="81.6" x="2.8" y="2.8" width="127.171" fill="#ffe9c8"/>
    <g font-family="Droid Sans" stroke="none" text-anchor="left" font-size="9.6" fill="#000000">
     <text x="8.8" y="18.4" fill="#000000">PrintPy2040 hookup guide:</text>
    </g>
    <g font-family="Droid Sans" stroke="none" text-anchor="left" font-size="9.6" fill="#000000">
     <text x="8.8" y="30.4" fill="#000000">- Suitable for 'rats nest' </text>
    </g>
    <g font-family="Droid Sans" stroke="none" text-anchor="left" font-size="9.6" fill="#000000">
     <text x="8.8" y="41.6" fill="#000000">free-form wiring.</text>
    </g>
    <g font-family="Droid Sans" stroke="none" text-anchor="left" font-size="9.6" fill="#000000">
     <text x="8.8" y="53.6" fill="#000000">- If using supplied case *do </text>
    </g>
    <g font-family="Droid Sans" stroke="none" text-anchor="left" font-size="9.6" fill="#000000">
     <text x="8.8" y="64.8" fill="#000000">not* solder pinheaders to </text>
    </g>
    <g font-family="Droid Sans" stroke="none" text-anchor="left" font-size="9.6" fill="#000000">
     <text x="8.8" y="76" fill="#000000">OLED or XIAO boards.</text>
    </g>
   </g>
  </g>
 </g>
</svg>
